# xmcd CD database file
#
# Track frame offsets:
#	150
#	16482
#	28012
#	41512
#	54975
#	68407
#	81170
#	92342
#	105842
#	117862
#	131235
#	141875
#	160085
#	170775
#	184632
#	195900
#	205225
#
# Disc length: 2883 seconds
#
# Revision: 0
# Processed by: cddbd v1.4PL0 Copyright (c) Steve Scherf et al.
# Submitted via: CDex 1.50beta10
#
DISCID=d60b4111
DTITLE=Grant Chilcott and His Neo Swing Ensemble - Wentworth-Brewster and Co
DYEAR=1990
DGENRE=Jazz
TTITLE0=Sand In My Shoes
TTITLE1=Baubles Bangles and Beads
TTITLE2=So Rare
TTITLE3=Come Fly With Me
TTITLE4=Something's Gotta Give
TTITLE5=The Surry With The Fringe On The Top
TTITLE6=The More I See You
TTITLE7=That Old Black Magic
TTITLE8=Money Isn't Everything
TTITLE9=Witchcraft
TTITLE10=On A Slow Boat To China
TTITLE11=Polka Dots and Moonbeams
TTITLE12=South American Girl
TTITLE13=Love Is The Tender Trap
TTITLE14=I'm Hip
TTITLE15=Crazy Rhythm
TTITLE16=Welcome To The Club
EXTD=YEAR: 1990
EXTT0=
EXTT1=
EXTT2=
EXTT3=
EXTT4=
EXTT5=
EXTT6=
EXTT7=
EXTT8=
EXTT9=
EXTT10=
EXTT11=
EXTT12=
EXTT13=
EXTT14=
EXTT15=
EXTT16=
PLAYORDER=
